<svg xmlns="http://www.w3.org/2000/svg" xmlns:xlink="http://www.w3.org/1999/xlink" width="500" zoomAndPan="magnify" viewBox="0 0 375 374.999991" height="500" preserveAspectRatio="xMidYMid meet" version="1.0"><defs><clipPath id="1c97df7fbf"><path d="M 6.769531 6.769531 L 368.269531 6.769531 L 368.269531 368.269531 L 6.769531 368.269531 Z M 6.769531 6.769531 " clip-rule="nonzero"/></clipPath><clipPath id="150bde41e8"><path d="M 37.5 46 L 337.5 46 L 337.5 301.640625 L 37.5 301.640625 Z M 37.5 46 " clip-rule="nonzero"/></clipPath></defs><g clip-path="url(#1c97df7fbf)"><path fill="#e5b863" d="M 368.269531 187.519531 C 368.269531 190.476562 368.195312 193.433594 368.050781 196.386719 C 367.90625 199.34375 367.6875 202.289062 367.398438 205.234375 C 367.109375 208.179688 366.746094 211.113281 366.3125 214.039062 C 365.878906 216.964844 365.371094 219.878906 364.796875 222.78125 C 364.21875 225.683594 363.570312 228.566406 362.851562 231.4375 C 362.132812 234.304688 361.34375 237.15625 360.484375 239.988281 C 359.625 242.816406 358.699219 245.625 357.703125 248.410156 C 356.707031 251.195312 355.640625 253.957031 354.507812 256.6875 C 353.378906 259.421875 352.179688 262.125 350.914062 264.800781 C 349.648438 267.472656 348.320312 270.113281 346.925781 272.722656 C 345.53125 275.332031 344.074219 277.90625 342.550781 280.441406 C 341.03125 282.980469 339.449219 285.476562 337.804688 287.9375 C 336.164062 290.398438 334.460938 292.816406 332.699219 295.191406 C 330.9375 297.566406 329.117188 299.898438 327.238281 302.183594 C 325.363281 304.472656 323.433594 306.710938 321.445312 308.902344 C 319.457031 311.09375 317.417969 313.234375 315.328125 315.328125 C 313.234375 317.417969 311.09375 319.457031 308.902344 321.445312 C 306.710938 323.433594 304.472656 325.363281 302.183594 327.238281 C 299.898438 329.117188 297.566406 330.9375 295.191406 332.699219 C 292.816406 334.460938 290.398438 336.164062 287.9375 337.804688 C 285.476562 339.449219 282.980469 341.03125 280.441406 342.550781 C 277.90625 344.074219 275.332031 345.53125 272.722656 346.925781 C 270.113281 348.320312 267.472656 349.648438 264.796875 350.914062 C 262.125 352.179688 259.421875 353.378906 256.6875 354.507812 C 253.957031 355.640625 251.195312 356.707031 248.410156 357.703125 C 245.625 358.699219 242.816406 359.625 239.988281 360.484375 C 237.15625 361.34375 234.304688 362.132812 231.4375 362.851562 C 228.566406 363.570312 225.683594 364.21875 222.78125 364.796875 C 219.878906 365.371094 216.964844 365.878906 214.039062 366.3125 C 211.113281 366.746094 208.179688 367.109375 205.234375 367.398438 C 202.289062 367.6875 199.339844 367.90625 196.386719 368.050781 C 193.433594 368.195312 190.476562 368.269531 187.519531 368.269531 C 184.558594 368.269531 181.605469 368.195312 178.648438 368.050781 C 175.695312 367.90625 172.746094 367.6875 169.800781 367.398438 C 166.859375 367.109375 163.921875 366.746094 160.996094 366.3125 C 158.070312 365.878906 155.15625 365.371094 152.253906 364.796875 C 149.355469 364.21875 146.46875 363.570312 143.597656 362.851562 C 140.730469 362.132812 137.878906 361.34375 135.050781 360.484375 C 132.21875 359.625 129.410156 358.699219 126.625 357.703125 C 123.839844 356.707031 121.082031 355.640625 118.347656 354.507812 C 115.617188 353.378906 112.910156 352.179688 110.238281 350.914062 C 107.5625 349.648438 104.921875 348.320312 102.3125 346.925781 C 99.703125 345.53125 97.132812 344.074219 94.59375 342.550781 C 92.058594 341.03125 89.558594 339.449219 87.097656 337.804688 C 84.640625 336.164062 82.222656 334.460938 79.84375 332.699219 C 77.46875 330.9375 75.136719 329.117188 72.851562 327.238281 C 70.566406 325.363281 68.324219 323.433594 66.132812 321.445312 C 63.941406 319.457031 61.800781 317.417969 59.707031 315.328125 C 57.617188 313.234375 55.578125 311.09375 53.589844 308.902344 C 51.605469 306.710938 49.671875 304.472656 47.796875 302.183594 C 45.921875 299.898438 44.101562 297.566406 42.339844 295.191406 C 40.578125 292.816406 38.875 290.398438 37.230469 287.9375 C 35.585938 285.476562 34.003906 282.980469 32.484375 280.441406 C 30.964844 277.90625 29.503906 275.332031 28.109375 272.722656 C 26.714844 270.113281 25.386719 267.472656 24.121094 264.796875 C 22.859375 262.125 21.660156 259.421875 20.527344 256.6875 C 19.394531 253.957031 18.332031 251.195312 17.335938 248.410156 C 16.335938 245.625 15.410156 242.816406 14.550781 239.988281 C 13.691406 237.15625 12.902344 234.304688 12.183594 231.4375 C 11.464844 228.566406 10.820312 225.683594 10.242188 222.78125 C 9.664062 219.878906 9.160156 216.964844 8.726562 214.039062 C 8.289062 211.113281 7.929688 208.179688 7.636719 205.234375 C 7.347656 202.289062 7.132812 199.34375 6.984375 196.386719 C 6.839844 193.433594 6.769531 190.476562 6.769531 187.519531 C 6.769531 184.558594 6.839844 181.605469 6.984375 178.648438 C 7.132812 175.695312 7.347656 172.746094 7.636719 169.800781 C 7.929688 166.859375 8.289062 163.921875 8.726562 160.996094 C 9.160156 158.070312 9.664062 155.15625 10.242188 152.253906 C 10.820312 149.355469 11.464844 146.46875 12.183594 143.597656 C 12.902344 140.730469 13.691406 137.878906 14.550781 135.050781 C 15.410156 132.21875 16.335938 129.410156 17.335938 126.625 C 18.332031 123.839844 19.394531 121.082031 20.527344 118.347656 C 21.660156 115.617188 22.859375 112.910156 24.121094 110.238281 C 25.386719 107.5625 26.714844 104.921875 28.109375 102.3125 C 29.503906 99.703125 30.964844 97.132812 32.484375 94.59375 C 34.003906 92.058594 35.585938 89.558594 37.230469 87.097656 C 38.875 84.640625 40.578125 82.222656 42.339844 79.84375 C 44.101562 77.46875 45.921875 75.136719 47.796875 72.851562 C 49.671875 70.566406 51.605469 68.324219 53.589844 66.132812 C 55.578125 63.941406 57.617188 61.800781 59.707031 59.707031 C 61.800781 57.617188 63.941406 55.578125 66.132812 53.589844 C 68.324219 51.605469 70.566406 49.671875 72.851562 47.796875 C 75.136719 45.921875 77.46875 44.101562 79.84375 42.339844 C 82.222656 40.578125 84.640625 38.875 87.097656 37.230469 C 89.558594 35.585938 92.058594 34.003906 94.59375 32.484375 C 97.132812 30.964844 99.703125 29.503906 102.3125 28.109375 C 104.921875 26.714844 107.5625 25.386719 110.238281 24.121094 C 112.910156 22.859375 115.617188 21.660156 118.347656 20.527344 C 121.082031 19.394531 123.839844 18.332031 126.625 17.335938 C 129.410156 16.335938 132.21875 15.410156 135.050781 14.550781 C 137.878906 13.691406 140.730469 12.902344 143.597656 12.183594 C 146.46875 11.464844 149.355469 10.820312 152.253906 10.242188 C 155.15625 9.664062 158.070312 9.160156 160.996094 8.726562 C 163.921875 8.289062 166.859375 7.929688 169.800781 7.636719 C 172.746094 7.347656 175.695312 7.132812 178.648438 6.984375 C 181.605469 6.839844 184.558594 6.769531 187.519531 6.769531 C 190.476562 6.769531 193.433594 6.839844 196.386719 6.984375 C 199.339844 7.132812 202.289062 7.347656 205.234375 7.636719 C 208.179688 7.929688 211.113281 8.289062 214.039062 8.726562 C 216.964844 9.160156 219.878906 9.664062 222.78125 10.242188 C 225.683594 10.820312 228.566406 11.464844 231.4375 12.183594 C 234.304688 12.902344 237.15625 13.691406 239.988281 14.550781 C 242.816406 15.410156 245.625 16.335938 248.410156 17.335938 C 251.195312 18.332031 253.957031 19.394531 256.6875 20.527344 C 259.421875 21.660156 262.125 22.859375 264.800781 24.121094 C 267.472656 25.386719 270.113281 26.714844 272.722656 28.109375 C 275.332031 29.503906 277.90625 30.964844 280.441406 32.484375 C 282.980469 34.003906 285.476562 35.585938 287.9375 37.230469 C 290.398438 38.875 292.816406 40.578125 295.191406 42.339844 C 297.566406 44.101562 299.898438 45.921875 302.183594 47.796875 C 304.472656 49.671875 306.710938 51.605469 308.902344 53.589844 C 311.09375 55.578125 313.234375 57.617188 315.328125 59.707031 C 317.417969 61.800781 319.457031 63.941406 321.445312 66.132812 C 323.433594 68.324219 325.363281 70.566406 327.238281 72.851562 C 329.117188 75.136719 330.9375 77.46875 332.699219 79.84375 C 334.460938 82.222656 336.164062 84.640625 337.804688 87.097656 C 339.449219 89.558594 341.03125 92.058594 342.550781 94.59375 C 344.074219 97.132812 345.53125 99.703125 346.925781 102.3125 C 348.320312 104.921875 349.648438 107.5625 350.914062 110.238281 C 352.179688 112.910156 353.378906 115.617188 354.507812 118.347656 C 355.640625 121.082031 356.707031 123.839844 357.703125 126.625 C 358.699219 129.410156 359.625 132.21875 360.484375 135.050781 C 361.34375 137.878906 362.132812 140.730469 362.851562 143.597656 C 363.570312 146.46875 364.21875 149.355469 364.796875 152.253906 C 365.371094 155.15625 365.878906 158.070312 366.3125 160.996094 C 366.746094 163.921875 367.109375 166.859375 367.398438 169.800781 C 367.6875 172.746094 367.90625 175.695312 368.050781 178.648438 C 368.195312 181.605469 368.269531 184.558594 368.269531 187.519531 Z M 368.269531 187.519531 " fill-opacity="1" fill-rule="nonzero"/></g><g clip-path="url(#150bde41e8)"><path fill="#ffffff" d="M 262.5 219.144531 C 262.5 231.601562 252.433594 241.683594 239.996094 241.683594 C 227.582031 241.683594 217.515625 231.601562 217.515625 219.144531 C 217.515625 206.6875 227.582031 196.605469 239.996094 196.605469 C 252.433594 196.605469 262.5 206.6875 262.5 219.144531 Z M 157.511719 219.144531 C 157.511719 231.601562 147.417969 241.683594 135.003906 241.683594 C 122.566406 241.683594 112.5 231.601562 112.5 219.144531 C 112.5 206.6875 122.566406 196.605469 135.003906 196.605469 C 147.417969 196.605469 157.511719 206.6875 157.511719 219.144531 Z M 292.515625 256.699219 C 292.488281 273.289062 279.066406 286.730469 262.5 286.730469 L 112.5 286.730469 C 95.933594 286.730469 82.511719 273.289062 82.511719 256.699219 L 82.511719 181.589844 C 82.511719 165 95.933594 151.558594 112.5 151.53125 L 262.5 151.53125 C 279.066406 151.558594 292.488281 165 292.515625 181.589844 Z M 314.996094 196.605469 L 307.484375 196.605469 L 307.484375 181.589844 C 307.484375 156.707031 287.347656 136.515625 262.5 136.515625 L 202.496094 136.515625 L 202.496094 102.320312 C 216.851562 94.027344 221.777344 75.648438 213.46875 61.273438 C 205.183594 46.894531 186.859375 41.988281 172.503906 50.285156 C 158.148438 58.578125 153.222656 76.957031 161.53125 91.304688 C 164.140625 95.894531 167.949219 99.679688 172.503906 102.320312 L 172.503906 136.515625 L 112.5 136.515625 C 87.652344 136.515625 67.488281 156.707031 67.488281 181.589844 L 67.488281 196.605469 L 60.003906 196.605469 C 47.566406 196.605469 37.5 206.6875 37.5 219.144531 C 37.5 231.601562 47.566406 241.683594 60.003906 241.683594 L 67.488281 241.683594 L 67.488281 256.699219 C 67.488281 281.582031 87.652344 301.773438 112.5 301.773438 L 262.5 301.773438 C 287.347656 301.773438 307.484375 281.582031 307.484375 256.699219 L 307.484375 241.683594 L 314.996094 241.683594 C 327.433594 241.683594 337.5 231.601562 337.5 219.144531 C 337.5 206.6875 327.433594 196.605469 314.996094 196.605469 " fill-opacity="1" fill-rule="nonzero"/></g></svg>