<svg xmlns="http://www.w3.org/2000/svg" xmlns:xlink="http://www.w3.org/1999/xlink" width="500" zoomAndPan="magnify" viewBox="0 0 375 374.999991" height="500" preserveAspectRatio="xMidYMid meet" version="1.0"><defs><g/><clipPath id="14eb5bb0c7"><path d="M 73.949219 15 L 301.199219 15 L 301.199219 208.449219 L 73.949219 208.449219 Z M 73.949219 15 " clip-rule="nonzero"/></clipPath></defs><g clip-path="url(#14eb5bb0c7)"><path fill="#ffffff" d="M 244.386719 145.976562 C 244.386719 155.410156 236.757812 163.042969 227.335938 163.042969 C 217.9375 163.042969 210.308594 155.410156 210.308594 145.976562 C 210.308594 136.546875 217.9375 128.910156 227.335938 128.910156 C 236.757812 128.910156 244.386719 136.546875 244.386719 145.976562 Z M 164.855469 145.976562 C 164.855469 155.410156 157.210938 163.042969 147.808594 163.042969 C 138.386719 163.042969 130.761719 155.410156 130.761719 145.976562 C 130.761719 136.546875 138.386719 128.910156 147.808594 128.910156 C 157.210938 128.910156 164.855469 136.546875 164.855469 145.976562 Z M 267.121094 174.414062 C 267.101562 186.976562 256.933594 197.15625 244.386719 197.15625 L 130.761719 197.15625 C 118.210938 197.15625 108.042969 186.976562 108.042969 174.414062 L 108.042969 117.539062 C 108.042969 104.980469 118.210938 94.800781 130.761719 94.78125 L 244.386719 94.78125 C 256.933594 94.800781 267.101562 104.980469 267.121094 117.539062 Z M 284.148438 128.910156 L 278.460938 128.910156 L 278.460938 117.539062 C 278.460938 98.699219 263.207031 83.410156 244.386719 83.410156 L 198.929688 83.410156 L 198.929688 57.515625 C 209.804688 51.234375 213.539062 37.320312 207.242188 26.433594 C 200.96875 15.550781 187.089844 11.832031 176.214844 18.113281 C 165.339844 24.394531 161.609375 38.3125 167.902344 49.175781 C 169.878906 52.648438 172.765625 55.519531 176.214844 57.515625 L 176.214844 83.410156 L 130.761719 83.410156 C 111.9375 83.410156 96.664062 98.699219 96.664062 117.539062 L 96.664062 128.910156 L 90.996094 128.910156 C 81.574219 128.910156 73.949219 136.546875 73.949219 145.976562 C 73.949219 155.410156 81.574219 163.042969 90.996094 163.042969 L 96.664062 163.042969 L 96.664062 174.414062 C 96.664062 193.257812 111.9375 208.546875 130.761719 208.546875 L 244.386719 208.546875 C 263.207031 208.546875 278.460938 193.257812 278.460938 174.414062 L 278.460938 163.042969 L 284.148438 163.042969 C 293.570312 163.042969 301.199219 155.410156 301.199219 145.976562 C 301.199219 136.546875 293.570312 128.910156 284.148438 128.910156 " fill-opacity="1" fill-rule="nonzero"/></g><g fill="#ffffff" fill-opacity="1"><g transform="translate(63.041064, 286.113377)"><g><path d="M 6.117188 -2.511719 L 7.039062 -0.585938 L 8.628906 0.167969 L 36.363281 -0.167969 L 39.546875 -0.585938 L 42.3125 -1.675781 L 45.496094 -3.519531 L 46.585938 -4.355469 L 47.925781 -5.613281 L 49.855469 -8.378906 L 50.609375 -9.972656 L 50.945312 -11.394531 L 51.613281 -13.070312 L 51.699219 -19.773438 L 51.363281 -21.367188 L 50.777344 -23.125 L 49.269531 -26.058594 L 48.09375 -27.484375 L 46.839844 -28.738281 L 46.082031 -30.582031 L 46.417969 -32.257812 L 47.339844 -33.933594 L 48.347656 -35.359375 L 49.519531 -41.390625 L 49.433594 -43.820312 L 48.515625 -46.921875 L 47.675781 -48.515625 L 47.171875 -50.105469 L 45.164062 -52.785156 L 43.988281 -53.960938 L 41.476562 -55.71875 L 38.375 -57.394531 L 33.683594 -58.484375 L 8.460938 -58.652344 L 6.785156 -57.898438 L 6.03125 -56.136719 L 6.199219 -52.535156 L 6.03125 -50.105469 L 6.367188 -44.492188 L 6.117188 -42.730469 L 6.285156 -40.972656 L 6.117188 -39.378906 L 6.199219 -37.621094 L 6.03125 -36.027344 L 6.03125 -29.324219 L 6.285156 -27.566406 L 6.117188 -25.972656 L 6.117188 -22.621094 L 6.285156 -21.03125 L 6.117188 -14.160156 L 6.367188 -10.726562 L 6.03125 -5.699219 Z M 23.292969 -35.945312 L 21.28125 -36.617188 L 20.445312 -38.292969 L 20.78125 -39.714844 L 20.78125 -41.308594 L 20.613281 -42.898438 L 21.535156 -44.324219 L 23.292969 -45.246094 L 29.324219 -44.996094 L 31.921875 -44.492188 L 32.929688 -43.820312 L 34.019531 -42.648438 L 34.269531 -40.386719 L 33.851562 -37.871094 L 32.425781 -36.53125 L 29.578125 -35.945312 Z M 23.042969 -13.324219 L 21.617188 -13.992188 L 20.695312 -15.753906 L 20.78125 -17.175781 L 20.613281 -18.769531 L 20.695312 -20.445312 L 21.28125 -21.953125 L 22.957031 -22.789062 L 31.839844 -22.789062 L 34.1875 -22.371094 L 35.441406 -21.449219 L 36.699219 -20.277344 L 36.867188 -17.929688 L 36.699219 -15.753906 L 35.609375 -14.578125 L 34.101562 -13.65625 L 29.578125 -13.238281 Z M 23.042969 -13.324219 "/></g></g></g><g fill="#ffffff" fill-opacity="1"><g transform="translate(118.326558, 286.113377)"><g><path d="M 4.023438 -2.429688 L 4.859375 -0.671875 L 6.535156 -0.0820312 L 31.421875 0.0820312 L 33.011719 -0.753906 L 33.933594 -2.261719 L 33.933594 -4.105469 L 33.765625 -5.613281 L 34.019531 -10.726562 L 32.84375 -12.148438 L 27.230469 -13.910156 L 26.308594 -15.585938 L 26.476562 -22.457031 L 26.140625 -25.808594 L 26.476562 -29.324219 L 26.308594 -31.839844 L 26.476562 -34.4375 L 26.308594 -36.027344 L 26.476562 -37.703125 L 26.308594 -39.464844 L 26.308594 -42.984375 L 27.230469 -44.492188 L 28.824219 -45.414062 L 30.667969 -45.496094 L 32.257812 -46.417969 L 33.179688 -48.011719 L 33.179688 -52.953125 L 33.347656 -54.460938 L 33.179688 -56.136719 L 32.511719 -57.8125 L 29.828125 -58.566406 L 19.1875 -58.652344 L 17.34375 -58.484375 L 12.234375 -58.566406 L 10.640625 -58.484375 L 7.375 -58.652344 L 5.53125 -57.8125 L 4.609375 -56.054688 L 4.609375 -54.460938 L 4.441406 -53.039062 L 4.441406 -51.195312 L 4.609375 -49.519531 L 4.609375 -47.925781 L 5.445312 -46.335938 L 10.558594 -44.574219 L 11.648438 -43.066406 L 11.394531 -35.945312 L 11.480469 -34.519531 L 11.730469 -32.59375 L 11.648438 -29.160156 L 11.480469 -27.484375 L 11.8125 -24.214844 L 11.394531 -22.539062 L 11.730469 -18.9375 L 11.5625 -15.667969 L 10.726562 -13.824219 L 5.195312 -12.066406 L 4.1875 -10.472656 L 4.023438 -8.882812 Z M 4.023438 -2.429688 "/></g></g></g><g fill="#ffffff" fill-opacity="1"><g transform="translate(156.356282, 286.113377)"><g><path d="M 16.085938 -2.597656 L 16.757812 -0.835938 L 18.515625 0 L 20.109375 -0.167969 L 21.785156 0 L 23.378906 -0.167969 L 28.570312 -0.167969 L 30.246094 -0.835938 L 30.917969 -2.511719 L 30.835938 -4.105469 L 31 -6.03125 L 30.917969 -9.382812 L 30.667969 -10.808594 L 30.917969 -12.566406 L 31.085938 -17.679688 L 30.917969 -19.1875 L 31.167969 -22.707031 L 30.835938 -39.378906 L 31.085938 -41.054688 L 30.917969 -42.898438 L 31.589844 -44.40625 L 33.433594 -45.164062 L 34.855469 -45.246094 L 36.53125 -45.164062 L 38.039062 -45.328125 L 42.648438 -45.246094 L 44.574219 -46 L 45.414062 -47.675781 L 45.246094 -49.433594 L 45.414062 -56.304688 L 44.574219 -57.980469 L 42.898438 -58.820312 L 40.890625 -58.652344 L 39.546875 -58.820312 L 37.957031 -58.820312 L 36.113281 -58.566406 L 34.4375 -58.566406 L 32.761719 -58.734375 L 31.085938 -58.734375 L 29.160156 -58.484375 L 4.1875 -58.652344 L 2.347656 -57.8125 L 1.507812 -56.136719 L 1.425781 -47.757812 L 2.347656 -45.917969 L 4.023438 -45.078125 L 6.199219 -45.328125 L 13.65625 -45.246094 L 15.164062 -44.324219 L 16.003906 -42.730469 L 16.253906 -33.515625 L 16.003906 -30.917969 L 16.171875 -29.324219 L 16.003906 -27.648438 L 16.003906 -24.296875 L 16.253906 -21.867188 L 15.917969 -19.355469 L 16.003906 -17.679688 L 15.917969 -15.917969 L 16.171875 -10.808594 L 16.003906 -9.132812 Z M 16.085938 -2.597656 "/></g></g></g><g fill="#ffffff" fill-opacity="1"><g transform="translate(203.181413, 286.113377)"><g><path d="M 24.296875 0.671875 L 26.730469 0.921875 L 29.410156 0.835938 L 37.621094 -0.753906 L 41.976562 -3.101562 L 44.660156 -4.945312 L 47.003906 -7.625 L 48.679688 -10.304688 L 49.351562 -11.8125 L 49.855469 -13.488281 L 50.105469 -15 L 50.191406 -20.191406 L 49.9375 -21.867188 L 49.519531 -23.460938 L 47.84375 -26.5625 L 45.832031 -29.160156 L 44.40625 -30.332031 L 39.96875 -32.34375 L 33.097656 -34.019531 L 24.632812 -35.109375 L 21.113281 -36.363281 L 19.859375 -37.035156 L 18.515625 -38.375 L 18.433594 -40.636719 L 18.683594 -42.816406 L 19.605469 -43.988281 L 21.03125 -45.078125 L 22.203125 -45.582031 L 23.710938 -45.917969 L 29.074219 -46.082031 L 30.917969 -45.414062 L 32.175781 -44.40625 L 34.941406 -41.476562 L 37.539062 -40.636719 L 43.066406 -40.46875 L 44.574219 -40.636719 L 46.167969 -40.46875 L 47.757812 -41.476562 L 48.515625 -43.066406 L 47.84375 -46.335938 L 46.503906 -49.351562 L 45.414062 -50.691406 L 44.574219 -52.03125 L 43.488281 -53.289062 L 38.125 -56.976562 L 33.515625 -58.566406 L 31.757812 -58.902344 L 30.246094 -59.070312 L 28.40625 -59.488281 L 23.710938 -59.40625 L 17.09375 -58.066406 L 15.585938 -57.480469 L 14.242188 -56.640625 L 12.902344 -56.136719 L 11.226562 -55.132812 L 10.054688 -54.042969 L 8.546875 -53.039062 L 7.625 -51.613281 L 6.535156 -50.523438 L 5.949219 -49.015625 L 5.109375 -47.675781 L 3.9375 -42.816406 L 4.023438 -37.203125 L 4.609375 -34.855469 L 5.699219 -31.921875 L 7.792969 -29.160156 L 10.136719 -26.980469 L 13.070312 -25.21875 L 17.847656 -23.628906 L 20.863281 -22.957031 L 27.734375 -22.457031 L 29.242188 -22.203125 L 30.917969 -22.121094 L 33.933594 -20.863281 L 35.109375 -19.859375 L 35.527344 -17.679688 L 35.023438 -15.5 L 33.683594 -14.328125 L 32.34375 -13.574219 L 29.242188 -12.652344 L 26.894531 -12.566406 L 24.382812 -12.734375 L 22.457031 -13.238281 L 21.199219 -13.824219 L 19.691406 -14.746094 L 18.433594 -15.917969 L 17.175781 -17.59375 L 15.5 -18.265625 L 9.132812 -18.433594 L 7.457031 -18.265625 L 5.78125 -18.351562 L 4.105469 -17.59375 L 3.519531 -15.835938 L 3.6875 -13.992188 L 4.023438 -12.484375 L 5.363281 -9.132812 L 7.457031 -6.535156 L 9.886719 -4.105469 L 11.3125 -3.183594 L 17.34375 -0.417969 L 19.1875 -0.167969 L 20.78125 0.417969 Z M 24.296875 0.671875 "/></g></g></g><g fill="#e5b863" fill-opacity="1"><g transform="translate(256.615505, 286.113377)"><g><path d="M 22.371094 1.003906 L 29.828125 1.089844 L 33.765625 0.585938 L 37.035156 -0.417969 L 39.800781 -2.179688 L 42.3125 -4.441406 L 44.492188 -6.871094 L 45.917969 -10.054688 L 46.839844 -13.15625 L 47.257812 -16.589844 L 47.425781 -22.539062 L 48.261719 -24.800781 L 50.023438 -25.472656 L 51.863281 -26.5625 L 52.703125 -28.152344 L 52.703125 -31.335938 L 52.453125 -32.84375 L 52.535156 -35.441406 L 51.699219 -37.789062 L 50.191406 -38.625 L 48.515625 -38.878906 L 46.753906 -38.710938 L 42.480469 -38.710938 L 40.136719 -38.460938 L 38.460938 -38.710938 L 36.785156 -38.710938 L 35.109375 -37.789062 L 34.101562 -36.363281 L 33.765625 -16.171875 L 32.007812 -13.488281 L 30.5 -12.566406 L 28.992188 -11.8125 L 26.476562 -11.480469 L 24.046875 -11.898438 L 22.539062 -12.402344 L 21.199219 -13.40625 L 20.027344 -14.746094 L 19.1875 -16.085938 L 19.019531 -18.851562 L 19.269531 -21.113281 L 20.027344 -22.875 L 20.945312 -23.964844 L 22.371094 -25.054688 L 24.132812 -25.890625 L 26.394531 -26.226562 L 28.488281 -26.894531 L 29.242188 -28.65625 L 29.074219 -35.863281 L 28.570312 -37.621094 L 26.394531 -38.710938 L 24.046875 -39.296875 L 22.371094 -40.21875 L 21.785156 -42.566406 L 21.953125 -44.910156 L 23.042969 -46.167969 L 24.296875 -47.003906 L 26.5625 -47.339844 L 28.824219 -46.921875 L 30.332031 -46 L 31.921875 -44.910156 L 33.765625 -44.15625 L 41.390625 -44.242188 L 43.90625 -44.742188 L 44.660156 -46.503906 L 43.90625 -49.9375 L 43.152344 -51.53125 L 42.230469 -52.953125 L 40.136719 -55.300781 L 37.035156 -57.5625 L 35.609375 -58.234375 L 31.589844 -59.488281 L 26.394531 -59.910156 L 22.289062 -59.65625 L 18.9375 -58.820312 L 15.835938 -57.480469 L 14.496094 -56.726562 L 11.730469 -54.460938 L 10.640625 -53.207031 L 9.972656 -52.03125 L 8.882812 -50.609375 L 8.210938 -49.269531 L 7.875 -47.425781 L 7.457031 -45.917969 L 7.457031 -40.722656 L 8.546875 -37.789062 L 9.972656 -34.941406 L 10.136719 -33.433594 L 9.550781 -31.757812 L 8.460938 -30.332031 L 7.375 -29.242188 L 4.859375 -25.054688 L 3.9375 -21.953125 L 3.769531 -17.761719 L 4.105469 -13.824219 L 5.109375 -10.726562 L 5.949219 -9.050781 L 7.875 -6.453125 L 10.054688 -4.023438 L 11.480469 -2.933594 L 14.160156 -1.339844 L 15.667969 -0.835938 L 17.34375 -0.167969 L 20.78125 0.835938 Z M 22.371094 1.003906 "/></g></g></g><g fill="#ffffff" fill-opacity="1"><g transform="translate(51.592657, 353.216913)"><g><path d="M 30.835938 0.835938 L 35.863281 1.089844 L 43.988281 -0.585938 L 48.597656 -2.597656 L 49.855469 -3.433594 L 51.363281 -4.355469 L 52.785156 -5.363281 L 53.875 -6.453125 L 54.796875 -7.875 L 56.222656 -8.964844 L 58.734375 -13.324219 L 59.488281 -14.832031 L 59.910156 -16.421875 L 60.496094 -18.097656 L 60.746094 -19.691406 L 60.242188 -21.199219 L 58.148438 -22.121094 L 49.183594 -22.203125 L 47.339844 -21.367188 L 45.664062 -19.773438 L 44.996094 -18.351562 L 41.8125 -14.914062 L 38.960938 -13.488281 L 37.285156 -12.988281 L 35.527344 -12.820312 L 30.835938 -12.902344 L 26.308594 -14.578125 L 24.71875 -15.332031 L 23.628906 -16.507812 L 20.527344 -20.527344 L 19.859375 -21.953125 L 18.851562 -25.21875 L 18.601562 -29.160156 L 18.683594 -31.839844 L 19.269531 -33.347656 L 19.355469 -35.023438 L 19.859375 -36.53125 L 21.28125 -39.546875 L 23.378906 -42.144531 L 26.140625 -44.15625 L 27.734375 -44.828125 L 30.667969 -45.664062 L 35.863281 -45.496094 L 39.046875 -44.910156 L 40.804688 -44.324219 L 43.234375 -42.3125 L 44.492188 -40.972656 L 45.246094 -39.546875 L 46.753906 -37.957031 L 48.597656 -37.203125 L 57.058594 -37.035156 L 58.734375 -37.203125 L 60.078125 -37.957031 L 60.578125 -39.714844 L 59.910156 -41.390625 L 59.65625 -42.898438 L 58.316406 -46.082031 L 55.214844 -50.355469 L 50.859375 -54.296875 L 49.015625 -55.550781 L 44.242188 -57.730469 L 40.972656 -58.652344 L 36.785156 -59.238281 L 29.160156 -59.238281 L 27.734375 -59.070312 L 26.140625 -58.566406 L 22.875 -57.898438 L 21.28125 -57.3125 L 20.027344 -56.558594 L 18.515625 -55.972656 L 12.652344 -52.199219 L 11.648438 -50.859375 L 9.382812 -48.765625 L 8.378906 -47.339844 L 4.523438 -39.800781 L 3.015625 -29.324219 L 3.351562 -26.644531 L 3.351562 -23.292969 L 4.1875 -20.027344 L 4.859375 -18.433594 L 5.109375 -16.925781 L 5.949219 -15.417969 L 6.535156 -13.992188 L 9.886719 -9.132812 L 12.902344 -6.199219 L 14.328125 -5.277344 L 15.585938 -4.273438 L 21.28125 -1.171875 L 22.957031 -0.585938 L 24.214844 -0.25 L 25.972656 0.335938 L 27.734375 0.503906 L 29.242188 0.835938 Z M 30.835938 0.835938 "/></g></g></g><g fill="#ffffff" fill-opacity="1"><g transform="translate(115.506022, 353.216913)"><g><path d="M 6.367188 -2.347656 L 7.039062 -0.585938 L 8.964844 0.167969 L 10.558594 0.167969 L 13.15625 -0.0820312 L 15.585938 0 L 17.34375 0.25 L 19.105469 0.0820312 L 20.945312 -0.671875 L 21.617188 -2.347656 L 21.703125 -4.023438 L 21.449219 -5.863281 L 21.617188 -7.375 L 21.449219 -9.050781 L 21.617188 -10.640625 L 21.535156 -12.484375 L 21.703125 -14.242188 L 21.449219 -20.863281 L 22.289062 -22.621094 L 23.964844 -23.628906 L 25.722656 -23.628906 L 27.230469 -23.460938 L 32.175781 -23.460938 L 33.851562 -23.628906 L 35.527344 -23.460938 L 37.117188 -23.460938 L 38.625 -22.621094 L 39.464844 -20.945312 L 39.714844 -15.835938 L 39.464844 -14.242188 L 39.800781 -8.296875 L 39.464844 -5.78125 L 39.714844 -2.511719 L 40.554688 -0.753906 L 42.230469 0.0820312 L 43.90625 -0.0820312 L 46.417969 0.167969 L 52.199219 0.167969 L 53.875 -0.753906 L 54.796875 -2.347656 L 55.132812 -5.78125 L 55.132812 -19.269531 L 54.796875 -22.457031 L 54.882812 -24.132812 L 54.714844 -25.890625 L 54.714844 -27.566406 L 54.964844 -29.324219 L 54.882812 -32.511719 L 55.050781 -34.351562 L 54.796875 -42.566406 L 55.214844 -49.519531 L 54.882812 -51.109375 L 54.714844 -52.703125 L 55.050781 -54.378906 L 54.882812 -56.054688 L 54.042969 -57.730469 L 51.445312 -58.566406 L 47.171875 -58.652344 L 44.492188 -58.402344 L 42.816406 -58.402344 L 40.300781 -57.648438 L 39.632812 -55.214844 L 39.800781 -46.082031 L 39.464844 -44.660156 L 39.464844 -39.800781 L 38.542969 -38.125 L 37.117188 -37.285156 L 33.765625 -37.285156 L 32.257812 -37.453125 L 24.132812 -37.371094 L 22.371094 -38.125 L 21.703125 -39.714844 L 21.703125 -44.742188 L 21.867188 -46.25 L 21.617188 -54.546875 L 21.703125 -55.972656 L 20.695312 -57.730469 L 18.097656 -58.566406 L 13.15625 -58.402344 L 11.480469 -58.566406 L 9.886719 -58.402344 L 7.289062 -57.648438 L 6.367188 -56.222656 L 6.117188 -54.378906 L 6.117188 -52.785156 L 6.285156 -50.945312 L 6.03125 -49.351562 L 6.453125 -44.324219 L 6.199219 -42.480469 L 6.367188 -41.054688 L 6.03125 -39.378906 L 6.367188 -34.269531 L 6.199219 -32.511719 L 6.199219 -27.648438 L 6.453125 -26.058594 L 6.285156 -23.460938 L 6.453125 -21.535156 L 6.199219 -17.59375 L 6.367188 -15.753906 L 6.117188 -14.078125 L 6.367188 -12.566406 L 6.199219 -10.890625 Z M 6.367188 -2.347656 "/></g></g></g><g fill="#ffffff" fill-opacity="1"><g transform="translate(176.822647, 353.216913)"><g><path d="M 4.023438 -2.429688 L 4.859375 -0.671875 L 6.535156 -0.0820312 L 31.421875 0.0820312 L 33.011719 -0.753906 L 33.933594 -2.261719 L 33.933594 -4.105469 L 33.765625 -5.613281 L 34.019531 -10.726562 L 32.84375 -12.148438 L 27.230469 -13.910156 L 26.308594 -15.585938 L 26.476562 -22.457031 L 26.140625 -25.808594 L 26.476562 -29.324219 L 26.308594 -31.839844 L 26.476562 -34.4375 L 26.308594 -36.027344 L 26.476562 -37.703125 L 26.308594 -39.464844 L 26.308594 -42.984375 L 27.230469 -44.492188 L 28.824219 -45.414062 L 30.667969 -45.496094 L 32.257812 -46.417969 L 33.179688 -48.011719 L 33.179688 -52.953125 L 33.347656 -54.460938 L 33.179688 -56.136719 L 32.511719 -57.8125 L 29.828125 -58.566406 L 19.1875 -58.652344 L 17.34375 -58.484375 L 12.234375 -58.566406 L 10.640625 -58.484375 L 7.375 -58.652344 L 5.53125 -57.8125 L 4.609375 -56.054688 L 4.609375 -54.460938 L 4.441406 -53.039062 L 4.441406 -51.195312 L 4.609375 -49.519531 L 4.609375 -47.925781 L 5.445312 -46.335938 L 10.558594 -44.574219 L 11.648438 -43.066406 L 11.394531 -35.945312 L 11.480469 -34.519531 L 11.730469 -32.59375 L 11.648438 -29.160156 L 11.480469 -27.484375 L 11.8125 -24.214844 L 11.394531 -22.539062 L 11.730469 -18.9375 L 11.5625 -15.667969 L 10.726562 -13.824219 L 5.195312 -12.066406 L 4.1875 -10.472656 L 4.023438 -8.882812 Z M 4.023438 -2.429688 "/></g></g></g><g fill="#ffffff" fill-opacity="1"><g transform="translate(214.852372, 353.216913)"><g><path d="M 6.199219 -2.597656 L 6.871094 -0.835938 L 8.628906 -0.167969 L 10.304688 0 L 15.25 -0.0820312 L 17.09375 0.0820312 L 18.851562 0.0820312 L 20.527344 -0.835938 L 21.28125 -2.597656 L 21.367188 -5.949219 L 21.199219 -7.539062 L 21.449219 -9.050781 L 21.28125 -10.890625 L 21.28125 -12.652344 L 21.867188 -14.078125 L 24.132812 -14.914062 L 25.972656 -15.164062 L 28.488281 -14.914062 L 32.84375 -15 L 36.28125 -15.667969 L 41.140625 -17.09375 L 43.988281 -18.851562 L 45.328125 -19.859375 L 47.84375 -22.289062 L 50.523438 -26.308594 L 51.277344 -27.816406 L 51.863281 -29.324219 L 52.621094 -32.761719 L 52.785156 -34.269531 L 52.871094 -39.214844 L 51.363281 -45.75 L 49.6875 -48.765625 L 48.597656 -50.191406 L 47.507812 -51.363281 L 46.585938 -52.621094 L 45.164062 -53.875 L 42.648438 -55.550781 L 39.632812 -57.144531 L 37.871094 -57.480469 L 36.195312 -58.148438 L 34.6875 -58.484375 L 9.636719 -58.566406 L 7.375 -57.8125 L 6.535156 -56.222656 L 6.367188 -54.460938 L 6.367188 -51.027344 L 6.117188 -49.519531 L 6.117188 -47.925781 L 6.367188 -46.167969 L 6.367188 -37.621094 L 6.199219 -35.945312 L 6.367188 -34.4375 L 6.199219 -32.59375 L 6.453125 -29.160156 L 6.117188 -26.894531 L 6.367188 -24.382812 L 6.199219 -22.789062 L 6.199219 -19.269531 L 6.453125 -17.679688 L 6.199219 -14.328125 L 6.453125 -9.050781 L 6.03125 -7.375 L 6.367188 -5.78125 L 6.117188 -4.1875 Z M 23.964844 -28.570312 L 22.371094 -29.324219 L 21.367188 -31 L 21.199219 -42.648438 L 22.203125 -44.492188 L 23.878906 -45.164062 L 25.972656 -45.328125 L 32.675781 -44.996094 L 34.101562 -44.242188 L 35.359375 -43.320312 L 36.699219 -42.0625 L 37.539062 -40.636719 L 38.292969 -36.699219 L 37.371094 -32.84375 L 35.441406 -30.5 L 34.101562 -29.578125 L 32.761719 -28.824219 L 25.890625 -28.40625 Z M 23.964844 -28.570312 "/></g></g></g><g fill="#ffffff" fill-opacity="1"><g transform="translate(269.970331, 353.216913)"><g><path d="M 24.296875 0.671875 L 26.730469 0.921875 L 29.410156 0.835938 L 37.621094 -0.753906 L 41.976562 -3.101562 L 44.660156 -4.945312 L 47.003906 -7.625 L 48.679688 -10.304688 L 49.351562 -11.8125 L 49.855469 -13.488281 L 50.105469 -15 L 50.191406 -20.191406 L 49.9375 -21.867188 L 49.519531 -23.460938 L 47.84375 -26.5625 L 45.832031 -29.160156 L 44.40625 -30.332031 L 39.96875 -32.34375 L 33.097656 -34.019531 L 24.632812 -35.109375 L 21.113281 -36.363281 L 19.859375 -37.035156 L 18.515625 -38.375 L 18.433594 -40.636719 L 18.683594 -42.816406 L 19.605469 -43.988281 L 21.03125 -45.078125 L 22.203125 -45.582031 L 23.710938 -45.917969 L 29.074219 -46.082031 L 30.917969 -45.414062 L 32.175781 -44.40625 L 34.941406 -41.476562 L 37.539062 -40.636719 L 43.066406 -40.46875 L 44.574219 -40.636719 L 46.167969 -40.46875 L 47.757812 -41.476562 L 48.515625 -43.066406 L 47.84375 -46.335938 L 46.503906 -49.351562 L 45.414062 -50.691406 L 44.574219 -52.03125 L 43.488281 -53.289062 L 38.125 -56.976562 L 33.515625 -58.566406 L 31.757812 -58.902344 L 30.246094 -59.070312 L 28.40625 -59.488281 L 23.710938 -59.40625 L 17.09375 -58.066406 L 15.585938 -57.480469 L 14.242188 -56.640625 L 12.902344 -56.136719 L 11.226562 -55.132812 L 10.054688 -54.042969 L 8.546875 -53.039062 L 7.625 -51.613281 L 6.535156 -50.523438 L 5.949219 -49.015625 L 5.109375 -47.675781 L 3.9375 -42.816406 L 4.023438 -37.203125 L 4.609375 -34.855469 L 5.699219 -31.921875 L 7.792969 -29.160156 L 10.136719 -26.980469 L 13.070312 -25.21875 L 17.847656 -23.628906 L 20.863281 -22.957031 L 27.734375 -22.457031 L 29.242188 -22.203125 L 30.917969 -22.121094 L 33.933594 -20.863281 L 35.109375 -19.859375 L 35.527344 -17.679688 L 35.023438 -15.5 L 33.683594 -14.328125 L 32.34375 -13.574219 L 29.242188 -12.652344 L 26.894531 -12.566406 L 24.382812 -12.734375 L 22.457031 -13.238281 L 21.199219 -13.824219 L 19.691406 -14.746094 L 18.433594 -15.917969 L 17.175781 -17.59375 L 15.5 -18.265625 L 9.132812 -18.433594 L 7.457031 -18.265625 L 5.78125 -18.351562 L 4.105469 -17.59375 L 3.519531 -15.835938 L 3.6875 -13.992188 L 4.023438 -12.484375 L 5.363281 -9.132812 L 7.457031 -6.535156 L 9.886719 -4.105469 L 11.3125 -3.183594 L 17.34375 -0.417969 L 19.1875 -0.167969 L 20.78125 0.417969 Z M 24.296875 0.671875 "/></g></g></g></svg>